<svg width="256px" height="256px" viewBox="0 0 16.00 16.00" xmlns="http://www.w3.org/2000/svg" fill="#28cdbdcc" class="bi bi-box-arrow-in-up-right" stroke="#000000" stroke-width="0.00016" transform="matrix(1, 0, 0, 1, 0, 0)"><g id="SVGRepo_bgCarrier" stroke-width="0"></g><g id="SVGRepo_tracerCarrier" stroke-linecap="round" stroke-linejoin="round" stroke="#CCCCCC" stroke-width="0.064"></g><g id="SVGRepo_iconCarrier"> <path fill-rule="evenodd" d="M6.364 13.5a.5.5 0 0 0 .5.5H13.5a1.5 1.5 0 0 0 1.5-1.5v-10A1.5 1.5 0 0 0 13.5 1h-10A1.5 1.5 0 0 0 2 2.5v6.636a.5.5 0 1 0 1 0V2.5a.5.5 0 0 1 .5-.5h10a.5.5 0 0 1 .5.5v10a.5.5 0 0 1-.5.5H6.864a.5.5 0 0 0-.5.5z"></path> <path fill-rule="evenodd" d="M11 5.5a.5.5 0 0 0-.5-.5h-5a.5.5 0 0 0 0 1h3.793l-8.147 8.146a.5.5 0 0 0 .708.708L10 6.707V10.5a.5.5 0 0 0 1 0v-5z"></path> </g></svg>