<svg width="32" height="32" viewBox="0 0 32 32" fill="none" xmlns="http://www.w3.org/2000/svg">
<path opacity="0.2" d="M27 16L18 25V7L27 16Z" fill="#289ccde4"/>
<path d="M27.7075 15.2925L18.7075 6.29249C18.5676 6.15248 18.3894 6.05712 18.1953 6.01846C18.0012 5.97981 17.8 5.99962 17.6172 6.07537C17.4344 6.15112 17.2782 6.27942 17.1683 6.44401C17.0584 6.60861 16.9998 6.8021 17 6.99999V15H5C4.73478 15 4.48043 15.1054 4.29289 15.2929C4.10536 15.4804 4 15.7348 4 16C4 16.2652 4.10536 16.5196 4.29289 16.7071C4.48043 16.8946 4.73478 17 5 17H17V25C16.9998 25.1979 17.0584 25.3914 17.1683 25.556C17.2782 25.7206 17.4344 25.8489 17.6172 25.9246C17.8 26.0004 18.0012 26.0202 18.1953 25.9815C18.3894 25.9429 18.5676 25.8475 18.7075 25.7075L27.7075 16.7075C27.8005 16.6146 27.8742 16.5043 27.9246 16.3829C27.9749 16.2615 28.0008 16.1314 28.0008 16C28.0008 15.8686 27.9749 15.7385 27.9246 15.6171C27.8742 15.4957 27.8005 15.3854 27.7075 15.2925ZM19 22.5862V9.41374L25.5863 16L19 22.5862Z" fill="#289ccde4"/>
</svg>
