<svg width="32" height="32" viewBox="0 0 32 32" fill="none" xmlns="http://www.w3.org/2000/svg">
<path opacity="0.4" d="M28.4887 16.8574L7.49124 28.8749C7.31363 28.9742 7.10993 29.017 6.90736 28.9975C6.70479 28.978 6.51298 28.8972 6.35756 28.7658C6.20214 28.6345 6.0905 28.4588 6.03755 28.2623C5.9846 28.0658 5.99287 27.8578 6.06124 27.6661L9.99999 15.9999L6.06124 4.33989C5.99287 4.14821 5.9846 3.94023 6.03755 3.74373C6.0905 3.54723 6.20214 3.37157 6.35756 3.24019C6.51298 3.10882 6.70479 3.02799 6.90736 3.0085C7.10993 2.98902 7.31363 3.0318 7.49124 3.13114L28.4912 15.1124C28.6462 15.1995 28.7752 15.3263 28.8648 15.4798C28.9545 15.6332 29.0016 15.8079 29.0014 15.9856C29.0011 16.1634 28.9535 16.3379 28.8634 16.4911C28.7733 16.6443 28.644 16.7708 28.4887 16.8574Z" fill="#289ccde4"/>
<path d="M28.9838 14.25L7.98378 2.26378C7.62956 2.06437 7.22298 1.97763 6.81822 2.01512C6.41346 2.0526 6.02973 2.21254 5.71816 2.47361C5.40659 2.73468 5.18196 3.08449 5.07421 3.47644C4.96646 3.86839 4.9807 4.28387 5.11503 4.66753L8.94378 16L5.11503 27.3338C5.00848 27.6354 4.97581 27.9581 5.01978 28.2749C5.06374 28.5918 5.18306 28.8934 5.36771 29.1546C5.55236 29.4158 5.79696 29.6289 6.08098 29.776C6.36501 29.9231 6.68017 29.9999 7.00003 30C7.34753 29.9993 7.68896 29.9089 7.99128 29.7375L28.9813 17.7313C29.2909 17.5578 29.5488 17.3052 29.7285 16.9992C29.9082 16.6932 30.0032 16.3448 30.0038 15.99C30.0045 15.6351 29.9107 15.2865 29.7321 14.9798C29.5535 14.6732 29.2965 14.4196 28.9875 14.245L28.9838 14.25ZM7.00003 28C7.00057 27.995 7.00057 27.99 7.00003 27.985L10.7175 17H18C18.2652 17 18.5196 16.8947 18.7071 16.7071C18.8947 16.5196 19 16.2652 19 16C19 15.7348 18.8947 15.4805 18.7071 15.2929C18.5196 15.1054 18.2652 15 18 15H10.7175L7.00753 4.02003C7.0063 4.01295 7.00376 4.00616 7.00003 4.00003L28 15.9788L7.00003 28Z" fill="#289ccde4"/>
</svg>
